{
    "asset": {
        "version": "2.0",
        "generator": "Open Asset Import Library (assimp v5.0.5eb040c7)"
    },
    "accessors": [
        {
            "bufferView": 0,
            "byteOffset": 0,
            "componentType": 5126,
            "count": 5284,
            "type": "VEC3",
            "max": [
                11.192405700683594,
                28.08357810974121,
                15.08041763305664
            ],
            "min": [
                -11.18465518951416,
                10.564425468444825,
                -15.355244636535645
            ]
        },
        {
            "bufferView": 1,
            "byteOffset": 0,
            "componentType": 5125,
            "count": 31680,
            "type": "SCALAR",
            "max": [
                5283
            ],
            "min": [
                0
            ]
        },
        {
            "bufferView": 2,
            "byteOffset": 0,
            "componentType": 5126,
            "count": 680,
            "type": "VEC3",
            "max": [
                12.386026382446289,
                0.4964810013771057,
                15.509645462036133
            ],
            "min": [
                -12.386030197143555,
                0.2327059954404831,
                -13.091047286987305
            ]
        },
        {
            "bufferView": 3,
            "byteOffset": 0,
            "componentType": 5125,
            "count": 4032,
            "type": "SCALAR",
            "max": [
                679
            ],
            "min": [
                0
            ]
        },
        {
            "bufferView": 4,
            "byteOffset": 0,
            "componentType": 5126,
            "count": 6326,
            "type": "VEC3",
            "max": [
                13.44709587097168,
                29.72659683227539,
                15.509649276733399
            ],
            "min": [
                -13.447096824645996,
                0.4958910048007965,
                -15.509649276733399
            ]
        },
        {
            "bufferView": 5,
            "byteOffset": 0,
            "componentType": 5126,
            "count": 6326,
            "type": "VEC3",
            "max": [
                1.0,
                1.0,
                1.0
            ],
            "min": [
                -1.0,
                -1.0,
                -1.0
            ]
        },
        {
            "bufferView": 6,
            "byteOffset": 0,
            "componentType": 5125,
            "count": 37752,
            "type": "SCALAR",
            "max": [
                6325
            ],
            "min": [
                0
            ]
        }
    ],
    "buffers": [
        {
            "byteLength": 517248,
            "uri": "result.bin"
        }
    ],
    "bufferViews": [
        {
            "buffer": 0,
            "byteOffset": 0,
            "byteLength": 63408,
            "target": 34962
        },
        {
            "buffer": 0,
            "byteOffset": 63408,
            "byteLength": 126720,
            "target": 34963
        },
        {
            "buffer": 0,
            "byteOffset": 190128,
            "byteLength": 8160,
            "target": 34962
        },
        {
            "buffer": 0,
            "byteOffset": 198288,
            "byteLength": 16128,
            "target": 34963
        },
        {
            "buffer": 0,
            "byteOffset": 214416,
            "byteLength": 75912,
            "target": 34962
        },
        {
            "buffer": 0,
            "byteOffset": 290328,
            "byteLength": 75912,
            "target": 34962
        },
        {
            "buffer": 0,
            "byteOffset": 366240,
            "byteLength": 151008,
            "target": 34963
        }
    ],
    "images": [
        {
            "uri": "D:\\kyouyu_material\\3DCG\\DL_material\\VizPeople\\VizPeople_Free_3d_Models_Armchairs\\OBJ\\Porada_Malindi\\Malindi_wood.jpg"
        }
    ],
    "materials": [
        {
            "name": "Porada_Malindi:wire_224087144",
            "pbrMetallicRoughness": {
                "baseColorFactor": [
                    0.5656000375747681,
                    0.5605857968330383,
                    0.49716243147850039,
                    1.0
                ],
                "metallicFactor": 0.0,
                "roughnessFactor": 0.9354631900787354
            }
        },
        {
            "name": "Porada_Malindi:wire_224087145",
            "pbrMetallicRoughness": {
                "baseColorFactor": [
                    0.7152000069618225,
                    0.7152000069618225,
                    0.7152000069618225,
                    1.0
                ],
                "metallicFactor": 0.0,
                "roughnessFactor": 0.9354631900787354
            }
        },
        {
            "name": "Porada_Malindi:wire_225088200",
            "pbrMetallicRoughness": {
                "baseColorTexture": {
                    "index": 0
                },
                "baseColorFactor": [
                    0.800000011920929,
                    0.800000011920929,
                    0.800000011920929,
                    1.0
                ],
                "metallicFactor": 0.0,
                "roughnessFactor": 0.9354631900787354
            }
        }
    ],
    "meshes": [
        {
            "name": "Porada_Malindi:Box03",
            "primitives": [
                {
                    "mode": 4,
                    "material": 0,
                    "indices": 1,
                    "attributes": {
                        "POSITION": 0
                    }
                }
            ]
        },
        {
            "name": "Porada_Malindi:Object04",
            "primitives": [
                {
                    "mode": 4,
                    "material": 1,
                    "indices": 3,
                    "attributes": {
                        "POSITION": 2
                    }
                }
            ]
        },
        {
            "name": "Porada_Malindi:objPlane04",
            "primitives": [
                {
                    "mode": 4,
                    "material": 2,
                    "indices": 6,
                    "attributes": {
                        "POSITION": 4,
                        "NORMAL": 5
                    }
                }
            ]
        }
    ],
    "nodes": [
        {
            "name": "RootNode",
            "children": [
                1,
                2,
                3
            ]
        },
        {
            "name": "Porada_Malindi:Box03",
            "mesh": 0
        },
        {
            "name": "Porada_Malindi:Object04",
            "mesh": 1
        },
        {
            "name": "Porada_Malindi:objPlane04",
            "mesh": 2
        }
    ],
    "samplers": [
        {}
    ],
    "scenes": [
        {
            "nodes": [
                0
            ]
        }
    ],
    "textures": [
        {
            "source": 0,
            "sampler": 0
        }
    ],
    "scene": 0
}